# xmcd
#
# Track frame offsets:
#	150
#	9900
#	22375
#	33062
#	44372
#	57497
#	70097
#	81315
#	94597
#	106487
#	118375
#	129662
#	140512
#	150887
#	164285
#
# Disc length: 2320 seconds
#
# Revision: 1
# Processed by: cddbd v1.5.1PL2 Copyright (c) Steve Scherf et al.
# Submitted via: audiograbber 1.83.01
#
DISCID=c5090e0f
DTITLE=Various Artist - Country and Western (MCPS)
DYEAR=1900
DGENRE=Country
TTITLE0=From a Jack to a King - Ned Miler
TTITLE1=Ruben James - Kenny Rodgers
TTITLE2=Honky Tonk Angel - Dolly Parton
TTITLE3=Good Old Girl - Waylon Jennings
TTITLE4=Ruby Don't Take your Love to Town - Kenny Rodgers
TTITLE5=Four in the Morning - Faron Young
TTITLE6=Send me the Pillow - Hank Locklin
TTITLE7=Rose Garden - Lynn Anderson
TTITLE8=Walking after Midnight - Patsy Cline
TTITLE9=Crying - Waylon Jennings
TTITLE10=Blue Eyes Crying in the Rain - Roy Drusky
TTITLE11=I Feel Sorry for Him - Willie Nelson
TTITLE12=I Believe - Frankie Laine
TTITLE13=Shine on Ruby Mountain - Kenny Rodgers
TTITLE14=Six Days on the Road - Dave Dudley
EXTD=
EXTT0=
EXTT1=
EXTT2=
EXTT3=
EXTT4=
EXTT5=
EXTT6=
EXTT7=
EXTT8=
EXTT9=
EXTT10=
EXTT11=
EXTT12=
EXTT13=
EXTT14=
PLAYORDER=
